HIERARCHY
ROOT joint_Root
{
	OFFSET 0.0 0.0 0.0
	CHANNELS 6 Xposition Yposition Zposition Zrotation Xrotation Yrotation 
	JOINT Hips
	{
		OFFSET -0.726466 93.3139 -2.00062
		CHANNELS 6 Xposition Yposition Zposition Zrotation Xrotation Yrotation 
		JOINT Spine
		{
			OFFSET 15.7357 0.0 0.0
			CHANNELS 6 Xposition Yposition Zposition Zrotation Xrotation Yrotation 
			JOINT Chest
			{
				OFFSET 8.98455 -0.406207 0.0
				CHANNELS 6 Xposition Yposition Zposition Zrotation Xrotation Yrotation 
				JOINT Neck
				{
					OFFSET 16.3773 0.0 0.0
					CHANNELS 6 Xposition Yposition Zposition Zrotation Xrotation Yrotation 
					JOINT Head
					{
						OFFSET 6.45672 0.0 0.0
						CHANNELS 6 Xposition Yposition Zposition Zrotation Xrotation Yrotation 
						End Site
						{
							OFFSET 0.0 0.0 0.0
						}
					}
				}
				JOINT Shoulder_L
				{
					OFFSET 12.9942 -0.242716 4.98039
					CHANNELS 6 Xposition Yposition Zposition Zrotation Xrotation Yrotation 
					JOINT UpperArm_L
					{
						OFFSET 5.34809 0.0 0.0
						CHANNELS 6 Xposition Yposition Zposition Zrotation Xrotation Yrotation 
						JOINT LowerArm_L
						{
							OFFSET 24.3286 1.87007e-05 0.0
							CHANNELS 6 Xposition Yposition Zposition Zrotation Xrotation Yrotation 
							JOINT Hand_L
							{
								OFFSET 22.2916 0.0 0.0
								CHANNELS 6 Xposition Yposition Zposition Zrotation Xrotation Yrotation 
								End Site
								{
									OFFSET 0.0 0.0 0.0
								}
							}
						}
					}
				}
				JOINT Shoulder_R
				{
					OFFSET 12.9945 -0.242716 -4.98039
					CHANNELS 6 Xposition Yposition Zposition Zrotation Xrotation Yrotation 
					JOINT UpperArm_R
					{
						OFFSET -5.34813 0.0 0.0
						CHANNELS 6 Xposition Yposition Zposition Zrotation Xrotation Yrotation 
						JOINT LowerArm_R
						{
							OFFSET -24.3289 0.000322201 0.0
							CHANNELS 6 Xposition Yposition Zposition Zrotation Xrotation Yrotation 
							JOINT Hand_R
							{
								OFFSET -22.2915 -0.000108084 0.0
								CHANNELS 6 Xposition Yposition Zposition Zrotation Xrotation Yrotation 
								End Site
								{
									OFFSET 0.0 0.0 0.0
								}
							}
						}
					}
				}
			}
		}
		JOINT UpperLeg_L
		{
			OFFSET -2.19248 -6.46944 0.0
			CHANNELS 6 Xposition Yposition Zposition Zrotation Xrotation Yrotation 
			JOINT LowerLeg_L
			{
				OFFSET 39.0811 0.0 -1.23785e-05
				CHANNELS 6 Xposition Yposition Zposition Zrotation Xrotation Yrotation 
				JOINT Foot_L
				{
					OFFSET 40.9854 0.0 -1.26872e-05
					CHANNELS 6 Xposition Yposition Zposition Zrotation Xrotation Yrotation 
					JOINT Toes_L
					{
						OFFSET 11.7543 0.0 0.0
						CHANNELS 6 Xposition Yposition Zposition Zrotation Xrotation Yrotation 
						End Site
						{
							OFFSET 0.0 0.0 0.0
						}
					}
				}
			}
		}
		JOINT UpperLeg_R
		{
			OFFSET -2.19251 6.46944 0.0
			CHANNELS 6 Xposition Yposition Zposition Zrotation Xrotation Yrotation 
			JOINT LowerLeg_R
			{
				OFFSET -39.0811 -0.00228153 -0.0401928
				CHANNELS 6 Xposition Yposition Zposition Zrotation Xrotation Yrotation 
				JOINT Foot_R
				{
					OFFSET -40.9854 0.0 0.0
					CHANNELS 6 Xposition Yposition Zposition Zrotation Xrotation Yrotation 
					JOINT Toes_R
					{
						OFFSET -11.7543 0.0 0.0
						CHANNELS 6 Xposition Yposition Zposition Zrotation Xrotation Yrotation 
						End Site
						{
							OFFSET 0.0 0.0 0.0
						}
					}
				}
			}
		}
	}
}
MOTION
Frames:	6
Frame Time:	0.0333333
0.000000 0.000000 0.000000 0.000000 0.000000 -0.000000 -3.639280 89.399500 514.817000 -83.291200 -3.898200 178.365000 15.735700 0.000005 -0.000001 65.408200 80.152300 -63.366200 8.984550 -0.406207 -0.000000 10.367800 -8.096000 4.822500 16.377300 -0.000001 -0.000001 6.298880 -1.490100 -0.806134 6.456720 -0.000001 -0.000000 0.258782 5.188830 4.390550 12.994200 -0.242716 4.980390 -88.060900 -5.838590 -71.591200 5.348090 -0.000007 -0.000001 -31.506600 19.348500 -44.235000 24.328600 0.000019 0.000005 3.522350 2.012300 -60.296900 22.291600 -0.000001 0.000005 10.817100 5.596810 -11.153400 12.994500 -0.242716 -4.980390 88.500800 2.832130 -62.090800 -5.348130 -0.000001 -0.000004 -61.190800 22.253100 6.505540 -24.328900 0.000322 -0.000009 5.869000 9.743360 -31.279200 -22.291500 -0.000108 -0.000004 1.517480 5.546020 -8.519240 -2.192480 -6.469440 -0.000000 -170.127000 -7.513950 5.944120 39.081100 -0.000007 -0.000012 0.001419 -0.003619 21.413500 40.985400 -0.000006 -0.000013 1.917460 1.008370 -78.563500 11.754300 -0.000000 0.000003 -1.549160 -1.977190 -16.422400 -2.192510 6.469440 -0.000001 -171.921000 19.687700 149.181000 -39.081100 -0.002282 -0.040193 0.008093 -0.015158 17.456900 -40.985400 0.000008 0.000006 -3.189500 -0.046298 -53.388200 -11.754300 -0.000006 -0.000006 -0.015568 -0.141363 -22.341600
0.000000 0.000000 0.000000 0.000000 0.000000 -0.000000 -3.186470 88.791600 512.204000 -83.685500 -4.826190 177.658000 15.735700 0.000005 -0.000001 63.747300 80.065500 -61.683800 8.984550 -0.406207 -0.000000 10.301800 -8.686010 4.914990 16.377300 -0.000001 -0.000001 6.083690 -1.638880 -0.852699 6.456720 -0.000001 -0.000000 -0.069670 5.355270 4.378800 12.994200 -0.242716 4.980390 -88.044600 -5.889140 -71.594700 5.348090 -0.000007 -0.000001 -29.786000 18.101900 -45.003100 24.328600 0.000019 0.000005 4.042930 2.147610 -62.064700 22.291600 -0.000001 0.000005 10.697900 5.595910 -11.100400 12.994500 -0.242716 -4.980390 88.626200 2.567470 -61.836600 -5.348130 -0.000001 -0.000004 -60.921900 22.010000 6.953250 -24.328900 0.000322 -0.000009 6.153750 10.268200 -31.172100 -22.291500 -0.000108 -0.000004 1.112650 5.540990 -8.287890 -2.192480 -6.469440 -0.000000 -169.448000 -7.731030 6.453680 39.081100 -0.000007 -0.000012 -0.012690 0.031208 22.127500 40.985400 -0.000006 -0.000013 1.104690 2.889220 -78.356400 11.754300 -0.000000 0.000003 -1.967650 -2.493610 -18.274900 -2.192510 6.469440 -0.000001 -170.326000 21.106400 148.079000 -39.081100 -0.002282 -0.040193 0.003683 -0.001675 11.718800 -40.985400 0.000008 0.000006 -5.630050 -0.946998 -52.643700 -11.754300 -0.000006 -0.000006 -0.016096 -0.144612 -22.475000
0.000000 0.000000 0.000000 0.000000 0.000000 -0.000000 -2.520070 88.058300 509.082000 -84.154700 -6.086920 177.229000 15.735700 0.000005 -0.000001 61.923400 79.890000 -59.827900 8.984550 -0.406207 -0.000000 10.354200 -9.407150 5.049920 16.377300 -0.000001 -0.000001 5.665490 -1.756100 -0.877001 6.456720 -0.000001 -0.000000 -0.243292 5.450460 4.341750 12.994200 -0.242716 4.980390 -88.042100 -5.950710 -71.750200 5.348090 -0.000007 -0.000001 -29.102300 17.322000 -44.965400 24.328600 0.000019 0.000005 4.862390 2.420760 -63.594100 22.291600 -0.000001 0.000005 10.491000 5.594890 -11.041400 12.994500 -0.242716 -4.980390 88.608300 2.558300 -61.442000 -5.348130 -0.000001 -0.000004 -60.435700 21.879700 7.043310 -24.328900 0.000322 -0.000009 6.144170 10.225800 -31.236300 -22.291500 -0.000108 -0.000004 0.640990 5.540160 -8.249830 -2.192480 -6.469440 -0.000000 -168.623000 -7.165470 7.150870 39.081100 -0.000007 -0.000012 -0.030140 0.070109 23.262800 40.985400 -0.000006 -0.000013 0.355837 4.439380 -77.469700 11.754300 -0.000000 0.000003 -1.847430 -2.245360 -21.874500 -2.192510 6.469440 -0.000001 -168.157000 23.680500 146.525000 -39.081100 -0.002282 -0.040193 0.003804 -0.002583 10.226000 -40.985400 0.000008 0.000006 -6.292360 -2.986230 -53.408500 -11.754300 -0.000006 -0.000006 -0.016600 -0.147666 -22.600500
0.000000 0.000000 0.000000 0.000000 0.000000 -0.000000 -1.667160 87.243300 505.430000 -84.504100 -7.563700 177.015000 15.735700 0.000005 -0.000001 59.956700 79.708200 -57.737500 8.984550 -0.406207 -0.000000 10.375900 -10.187500 5.372190 16.377300 -0.000001 -0.000001 5.473860 -1.949470 -1.011150 6.456720 -0.000001 -0.000000 -0.402466 5.588820 4.201650 12.994200 -0.242716 4.980390 -88.078100 -5.944610 -72.047500 5.348090 -0.000007 -0.000001 -29.329300 17.383400 -44.152800 24.328600 0.000019 0.000005 5.001650 2.387130 -64.549200 22.291600 -0.000001 0.000005 10.578200 5.596580 -11.139900 12.994500 -0.242716 -4.980390 88.517000 2.672710 -60.961200 -5.348130 -0.000001 -0.000004 -59.809600 21.720700 6.765010 -24.328900 0.000322 -0.000009 6.194370 10.226700 -31.442700 -22.291500 -0.000108 -0.000004 0.542389 5.542490 -8.356800 -2.192480 -6.469440 -0.000000 -167.317000 -6.384530 7.955650 39.081100 -0.000007 -0.000012 -0.058837 0.127396 24.789600 40.985400 -0.000006 -0.000013 -0.564784 6.348190 -75.509500 11.754300 -0.000000 0.000003 -1.631930 -1.894860 -26.618900 -2.192510 6.469440 -0.000001 -165.976000 25.007000 142.840000 -39.081100 -0.002282 -0.040193 -0.043356 0.156557 16.604100 -40.985400 0.000008 0.000006 -0.277249 -5.541140 -55.165800 -11.754300 -0.000006 -0.000006 -0.017290 -0.151786 -22.769900
0.000000 0.000000 0.000000 0.000000 0.000000 -0.000000 -0.672619 86.644800 501.542000 -83.831200 -8.480180 176.244000 15.735700 0.000005 -0.000001 59.060700 79.912800 -56.393800 8.984550 -0.406207 -0.000000 9.901670 -10.260600 6.232330 16.377300 -0.000001 -0.000001 5.660560 -2.251250 -1.289030 6.456720 -0.000001 -0.000000 -0.662119 5.615920 4.290470 12.994200 -0.242716 4.980390 -88.309800 -5.380510 -72.532100 5.348090 -0.000007 -0.000001 -29.610100 18.255800 -43.028300 24.328600 0.000019 0.000005 5.381230 2.551210 -64.707200 22.291600 -0.000001 0.000005 10.707200 5.595550 -11.079500 12.994500 -0.242716 -4.980390 88.110100 3.392620 -60.856500 -5.348130 -0.000001 -0.000004 -58.828800 20.917400 6.566660 -24.328900 0.000322 -0.000009 6.107820 9.899970 -31.902500 -22.291500 -0.000108 -0.000004 0.357795 5.540740 -8.276080 -2.192480 -6.469440 -0.000000 -164.889000 -6.265120 8.121530 39.081100 -0.000007 -0.000012 -0.057144 0.113667 26.690400 40.985400 -0.000006 -0.000013 -1.289350 8.062990 -73.679200 11.754300 -0.000000 0.000003 -1.039200 -1.122490 -26.118500 -2.192510 6.469440 -0.000001 -164.296000 24.051900 140.132000 -39.081100 -0.002282 -0.040193 0.061569 -0.148605 21.404100 -40.985400 0.000008 0.000006 8.416540 -4.675260 -47.827100 -11.754300 -0.000006 -0.000006 -0.024318 -0.190131 -24.350300
0.000000 0.000000 0.000000 0.000000 0.000000 -0.000000 0.357812 86.194400 497.079000 -82.808300 -8.742010 176.163000 15.735700 0.000005 -0.000001 59.306400 80.089400 -56.098500 8.984550 -0.406207 -0.000000 9.678490 -10.006300 7.273440 16.377300 -0.000001 -0.000001 5.700350 -2.207290 -1.742010 6.456720 -0.000001 -0.000000 -0.544928 5.643100 4.149470 12.994200 -0.242716 4.980390 -88.535900 -4.680810 -72.609200 5.348090 -0.000007 -0.000001 -31.185100 20.100200 -41.248100 24.328600 0.000019 0.000005 6.185540 3.014080 -64.120500 22.291600 -0.000001 0.000005 10.461800 5.595390 -11.070600 12.994500 -0.242716 -4.980390 87.785200 4.018860 -61.108200 -5.348130 -0.000001 -0.000004 -58.025300 20.340700 5.798120 -24.328900 0.000322 -0.000009 5.686790 9.338530 -31.540900 -22.291500 -0.000108 -0.000004 0.622893 5.543770 -8.415340 -2.192480 -6.469440 -0.000000 -162.240000 -5.759850 8.868590 39.081100 -0.000007 -0.000012 -0.045600 0.082276 28.997000 40.985400 -0.000006 -0.000013 -2.460870 9.272020 -69.510300 11.754300 -0.000000 0.000003 -0.079409 -0.390298 -32.778400 -2.192510 6.469440 -0.000001 -166.513000 18.767500 139.667000 -39.081100 -0.002282 -0.040193 0.059248 -0.105155 28.012600 -40.985400 0.000008 0.000006 6.230040 -9.490470 -44.591400 -11.754300 -0.000006 -0.000006 -0.021335 -0.174576 -23.708200
